<svg xmlns="http://www.w3.org/2000/svg" viewBox="0 0 247 70" fill="none">
    <path d="M0 32.5672H40.6725C40.6725 32.5672 39.6099 21.2645 55.1056 16.2249C66.0854 12.6418 90.0816 9.99095 90.0816 9.99095C90.0816 9.99095 34.9169 9.75791 17.8274 15.5258C0.73789 21.3228 0 32.5672 0 32.5672Z" fill="#004D99" />
    <path d="M39.9938 6.99039C39.9938 6.99039 48.6418 -1.07879 68.0631 7.92257H93.5646C93.5646 7.92257 59.3265 -9.26449 40.0233 6.99039" fill="#004D99" />
    <path d="M246.426 36.8202C247.046 33.9946 247.164 31.4019 246.78 28.955C246.396 26.5371 245.54 24.4397 244.212 22.6628C242.884 20.8858 241.172 19.4875 239.017 18.4679C236.892 17.4484 234.413 16.9532 231.609 16.9532C228.805 16.9532 226.385 17.4484 224.023 18.4679C221.662 19.4875 219.567 20.8858 217.825 22.6628C216.054 24.4397 214.667 26.508 213.663 28.8676C212.66 31.2272 212.158 33.7907 212.158 36.4707C212.158 39.1507 212.571 41.452 213.427 43.5785C214.283 45.7051 215.464 47.5403 217.028 49.0551C218.593 50.5699 220.452 51.7351 222.636 52.5217C224.82 53.3373 227.3 53.7451 230.045 53.7451C231.904 53.7451 233.882 53.5121 236.007 53.0751C238.132 52.6382 240.316 51.9973 242.53 51.1525L244.419 42.3259C241.467 43.4912 238.929 44.3651 236.833 44.9768C234.708 45.5594 232.819 45.8507 231.137 45.8507C228.539 45.8507 226.473 45.0642 224.879 43.4912C223.286 41.9181 222.636 39.675 222.902 36.7911H246.396L246.426 36.8202ZM223.964 30.7319C225.499 26.4206 227.979 24.2358 231.402 24.2358C233.262 24.2358 234.649 24.8476 235.594 26.0419C236.538 27.2363 236.863 28.8093 236.538 30.7319H223.964ZM215.169 18.2349C214.047 17.8562 212.571 17.5649 210.682 17.3319C208.823 17.0988 206.993 16.9823 205.252 16.9823C202.034 16.9823 199.024 17.4775 196.19 18.4971C193.357 19.5167 190.907 20.8858 188.841 22.6336C186.775 24.3815 185.122 26.4497 183.941 28.8384C182.731 31.2272 182.141 33.8489 182.141 36.6455C182.141 39.1507 182.584 41.452 183.499 43.5494C184.413 45.6468 185.653 47.4821 187.277 48.9677C188.9 50.4825 190.848 51.6477 193.091 52.4925C195.334 53.3373 197.814 53.7451 200.499 53.7451C202.3 53.7451 204.218 53.6286 206.226 53.3956C208.262 53.1625 210.033 52.8421 211.568 52.4343L212.837 42.8211C211.627 43.2872 210.564 43.6951 209.679 43.9864C208.793 44.3068 207.937 44.5399 207.141 44.6855C206.344 44.8312 205.606 44.9477 204.897 45.0351C204.189 45.1225 203.451 45.1516 202.654 45.1516C199.644 45.1516 197.341 44.4525 195.718 43.0542C194.124 41.6559 193.298 39.6459 193.298 37.0242C193.298 35.4511 193.622 34.0237 194.301 32.742C194.951 31.4311 195.866 30.295 196.987 29.3045C198.109 28.3141 199.466 27.5567 201.031 27.0032C202.595 26.4497 204.248 26.1876 206.048 26.1876H207.79C208.262 26.1876 208.793 26.2458 209.384 26.3332C209.915 26.4497 210.505 26.5954 211.214 26.7993C211.893 27.0032 212.778 27.3237 213.841 27.7315L215.198 18.2058L215.169 18.2349ZM160.949 17.6523H150.264L145.187 53.0751H155.872L159.119 30.3241C160.978 28.4015 162.631 27.0032 164.107 26.1584C165.583 25.3136 166.911 24.8767 168.15 24.8767C168.888 24.8767 169.479 25.0806 169.921 25.4884C170.364 25.8963 170.718 26.4497 170.954 27.1197C171.191 27.7897 171.338 28.5471 171.397 29.3919C171.456 30.2367 171.397 31.0815 171.309 31.9554L168.298 53.0751H178.983L182.082 31.1106C182.347 29.2754 182.377 27.5276 182.2 25.838C182.023 24.1484 181.55 22.6336 180.813 21.2936C180.075 19.9536 179.042 18.9049 177.684 18.1184C176.326 17.3319 174.644 16.9532 172.578 16.9532C170.364 16.9532 168.327 17.3027 166.439 18.031C164.579 18.7301 162.513 19.9245 160.299 21.6141L160.919 17.6232L160.949 17.6523ZM147.49 18.1475C145.276 17.7397 143.269 17.4192 141.468 17.2445C139.668 17.0697 137.631 16.9823 135.359 16.9823C130.518 16.9823 126.415 17.6232 123.08 18.9049C119.745 20.1867 117.088 21.8471 115.052 23.9154C113.015 25.9836 111.569 28.285 110.654 30.8193C109.769 33.3828 109.296 35.9463 109.296 38.5389C109.296 40.782 109.621 42.8212 110.241 44.6564C110.861 46.5207 111.746 48.1229 112.868 49.4629C113.989 50.8029 115.318 51.8808 116.852 52.6382C118.417 53.3956 120.07 53.7743 121.87 53.7743C123.67 53.7743 125.471 53.4538 127.124 52.7838C128.777 52.143 130.489 51.1234 132.23 49.7834L131.758 53.0751H142.442L147.43 18.1475H147.49ZM133.411 42.7629C130.872 44.8603 128.304 45.8799 125.737 45.8799C124.113 45.8799 122.814 45.2973 121.899 44.132C120.984 42.9668 120.512 41.2772 120.512 39.0924C120.512 37.9855 120.689 36.6163 121.014 34.985C121.368 33.3537 122.077 31.7806 123.139 30.3241C124.231 28.8676 125.766 27.6732 127.773 26.7702C129.78 25.8671 132.437 25.5467 135.772 25.8671L133.411 42.7338V42.7629ZM103.895 17.594L94.3319 37.2863H94.1843L89.6684 17.594H79.3085L88.4878 53.6869H95.7782L115.258 17.594H103.895ZM81.7878 18.1475C79.5741 17.7397 77.5671 17.4192 75.7666 17.2445C73.9662 17.0697 71.9296 16.9823 69.6864 16.9823C64.8458 16.9823 60.7432 17.6232 57.4079 18.9049C54.0727 20.1867 51.4162 21.8471 49.3797 23.9154C47.3431 25.9836 45.8968 28.285 44.9818 30.8193C44.0964 33.3828 43.6241 35.9463 43.6241 38.5389C43.6241 40.782 43.9488 42.8212 44.5686 44.6564C45.1885 46.5207 46.0739 48.1229 47.1955 49.4629C48.3171 50.8029 49.6453 51.8808 51.1801 52.6382C52.7444 53.3956 54.3973 53.7743 56.1978 53.7743C57.9982 53.7743 59.7987 53.4538 61.4515 52.7838C63.1044 52.143 64.8163 51.1234 66.5577 49.7834L66.0855 53.0751H76.7701L81.7583 18.1475H81.7878ZM67.7089 42.7629C65.1705 44.8603 62.6027 45.8799 60.0348 45.8799C58.4114 45.8799 57.1128 45.2973 56.1978 44.132C55.2828 42.9668 54.8105 41.2772 54.8105 39.0924C54.8105 37.9855 54.9876 36.6163 55.3418 34.985C55.696 33.3537 56.4044 31.7806 57.4669 30.3241C58.559 28.8676 60.0938 27.6732 62.1009 26.7702C64.108 25.8671 66.7644 25.5467 70.0996 25.8671L67.7384 42.7338L67.7089 42.7629Z" fill="#004D99" />
    <path d="M243.592 60.7365H241.614L240.316 69.8835H246.514L246.721 68.3396H242.5L243.592 60.7073V60.7365ZM235.859 60.6199L231.313 69.8835H233.498L234.383 67.8735H237.276L237.571 69.8835H239.607L237.984 60.6199H235.859ZM236.597 62.5426L237.099 66.5917H234.944L236.567 62.5426H236.597ZM232.73 60.7365H224.791L224.584 62.2804H227.506L226.414 69.9126H228.391L229.484 62.2804H232.494L232.701 60.7365H232.73ZM223.876 60.7365H221.898L221.072 66.7082L217.323 60.7365H215.346L214.047 69.8835H216.024L216.88 63.6787L220.688 69.8835H222.577L223.876 60.7365ZM213.604 60.7365H207.819L206.52 69.8835H213.309L213.516 68.3396H208.705L209.059 65.9508H212.424L212.63 64.4069H209.265L209.59 62.2513H213.398L213.634 60.7073L213.604 60.7365ZM199.437 60.7365L198.138 69.8835H200.116L200.647 66.1839H201.06C201.296 66.1839 201.503 66.1839 201.68 66.2421C201.827 66.2713 201.975 66.3587 202.123 66.4752C202.27 66.5917 202.388 66.7956 202.536 67.0287C202.683 67.2617 202.86 67.6113 203.038 68.0191L203.923 69.8835H206.107L204.69 66.9704C204.572 66.7082 204.425 66.5043 204.307 66.3295C204.159 66.1548 203.982 66.0091 203.716 65.8926C204.071 65.8052 204.366 65.6887 204.631 65.543C204.897 65.3974 205.104 65.1934 205.281 64.9895C205.458 64.7856 205.576 64.5526 205.664 64.2904C205.753 64.0282 205.783 63.766 205.783 63.4747C205.783 63.1834 205.723 62.8921 205.635 62.5717C205.546 62.2513 205.369 61.9599 205.104 61.6686C204.868 61.3773 204.543 61.1734 204.13 60.9695C203.716 60.7947 203.244 60.7073 202.654 60.7073H199.466L199.437 60.7365ZM201.178 62.2804H202.152C202.654 62.2804 203.008 62.3969 203.303 62.6008C203.569 62.8047 203.716 63.096 203.716 63.4747C203.716 63.6495 203.687 63.8243 203.598 63.97C203.539 64.1156 203.421 64.2613 203.244 64.3778C203.097 64.4943 202.89 64.6108 202.654 64.6691C202.418 64.7565 202.123 64.7856 201.798 64.7856H200.824L201.178 62.2804ZM187.66 60.7365L186.361 69.8835H188.339L188.87 66.1839H189.283C189.519 66.1839 189.726 66.1839 189.903 66.2421C190.051 66.2713 190.198 66.3587 190.346 66.4752C190.493 66.5917 190.611 66.7956 190.759 67.0287C190.907 67.2617 191.084 67.6113 191.261 68.0191L192.146 69.8835H194.33L192.884 66.9704C192.766 66.7082 192.619 66.5043 192.5 66.3295C192.353 66.1548 192.176 66.0091 191.91 65.8926C192.264 65.8052 192.56 65.6887 192.825 65.543C193.091 65.3974 193.297 65.1934 193.475 64.9895C193.652 64.7856 193.77 64.5526 193.858 64.2904C193.947 64.0282 193.976 63.766 193.976 63.4747C193.976 63.1834 193.917 62.8921 193.829 62.5717C193.711 62.2513 193.534 61.9599 193.297 61.6686C193.061 61.3773 192.737 61.1734 192.323 60.9695C191.91 60.7947 191.438 60.7073 190.848 60.7073H187.66V60.7365ZM189.401 62.2804H190.375C190.877 62.2804 191.231 62.3969 191.526 62.6008C191.792 62.8047 191.94 63.096 191.94 63.4747C191.94 63.6495 191.91 63.8243 191.822 63.97C191.763 64.1156 191.645 64.2613 191.467 64.3778C191.32 64.4943 191.113 64.6108 190.877 64.6691C190.641 64.7565 190.346 64.7856 190.021 64.7856H189.047L189.401 62.2804ZM181.845 60.6199L177.3 69.8835H179.484L180.37 67.8735H183.262L183.557 69.8835H185.594L183.97 60.6199H181.845ZM182.583 62.5426L183.085 66.5917H180.93L182.554 62.5426H182.583ZM178.067 60.9695C177.595 60.853 177.182 60.7656 176.769 60.7073C176.355 60.6491 175.972 60.6199 175.559 60.6199C174.673 60.6199 173.847 60.7365 173.109 60.9986C172.371 61.2608 171.721 61.6104 171.19 62.0765C170.659 62.5426 170.246 63.096 169.951 63.7078C169.655 64.3487 169.508 65.0478 169.508 65.8343C169.508 66.4752 169.626 67.0287 169.833 67.553C170.039 68.0774 170.364 68.5143 170.747 68.8639C171.131 69.2426 171.603 69.5048 172.164 69.7087C172.725 69.9126 173.345 70 173.994 70C174.555 70 175.086 69.9417 175.618 69.8252C176.149 69.7087 176.68 69.5339 177.27 69.2717L177.566 67.2326C176.887 67.6113 176.296 67.8735 175.765 68.0482C175.234 68.223 174.703 68.3104 174.171 68.3104C173.345 68.3104 172.696 68.1065 172.223 67.6404C171.751 67.2035 171.515 66.5917 171.515 65.8343C171.515 65.4848 171.574 65.0769 171.722 64.6691C171.84 64.2613 172.076 63.8826 172.371 63.5039C172.696 63.1543 173.079 62.863 173.581 62.63C174.083 62.3969 174.732 62.2804 175.47 62.2804C175.883 62.2804 176.267 62.3095 176.621 62.3678C176.975 62.426 177.359 62.5134 177.713 62.6008L178.038 60.9112L178.067 60.9695Z" fill="#004D99" />
</svg>
